<?xml version="1.0" encoding="utf-8"?>
<!-- Generator: Adobe Illustrator 22.1.0, SVG Export Plug-In . SVG Version: 6.00 Build 0)  -->
<svg version="1.1" id="logo-brasao-bpm" xmlns="http://www.w3.org/2000/svg" xmlns:xlink="http://www.w3.org/1999/xlink" x="0px"
	 y="0px" viewBox="0 0 274.2 50.3" style="enable-background:new 0 0 274.2 50.3;" xml:space="preserve">
<style type="text/css">
	.st0{fill:#007DC6;}
	.st1{fill:#73CEE2;}
	.st2{fill:#00AED4;}
	.st3{fill:#FFFFFF;}
	.st4{fill:#53A546;}
</style>
<g id="Camada_x0020_1">
	<path class="st0" d="M15.7,50.3c10.7,0,21.2-7,23.4-15.7c1.8-7-2.3-12.9-9.5-14.9L6,22.1L0.7,33.7l-0.2,0.9
		C-1.8,43.3,5,50.3,15.7,50.3z"/>
	<path class="st1" d="M24,0c8,0,13.1,5.3,11.4,11.8c-1.3,5.3-6.8,9.8-13.1,11.2c-5.6,1.3-19.7,3.4-21.8,11.6L6.3,12
		C8,5.6,15.9,0,24,0z"/>
	<g>
		<path class="st2" d="M29.5,19.7c-2.1,1.6-4.6,2.7-7.3,3.4c-5.6,1.3-19.7,3.4-21.8,11.6l0,0l5.8-22.6C4.7,18.2,23.1,19,23.8,19l0,0
			C25.8,19,27.8,19.2,29.5,19.7z M23.8,19L23.8,19L23.8,19z"/>
	</g>
	<path class="st3" d="M158.7,19.7c3.4,0,6.5,1.4,8.8,3.7c2.2,2.2,3.6,5.3,3.6,8.7v0.1l0,0V42c0,1.5-1.1,2.6-2.5,2.6
		c-1.3,0-2.5-1.1-2.5-2.4c-2.1,1.5-4.6,2.4-7.3,2.4c-3.4,0-6.6-1.4-8.9-3.7c-2.2-2.2-3.6-5.3-3.6-8.8s1.4-6.6,3.6-8.8
		C152.1,21.1,155.3,19.7,158.7,19.7z M94.1,19.7c1.5,0,2.5,1.1,2.5,2.5c0,1.5-1.1,2.6-2.5,2.6c-2.2,0-4,0.7-5.2,1.7
		c-1.1,1.1-1.8,2.7-1.8,4.6V42c0,1.5-1.1,2.6-2.5,2.6s-2.5-1.1-2.5-2.6V31.2c0-3.3,1.1-6.2,3.4-8.4C87.6,20.9,90.5,19.7,94.1,19.7z
		 M142.3,23.1c1,1,0.9,2.6-0.2,3.6c-1,1-2.6,0.9-3.6-0.2c-0.7-0.7-1.4-1.2-2.1-1.5c-0.8-0.3-1.6-0.4-2.5-0.3s-1.9,0.4-2.6,1
		c-0.4,0.2-0.7,0.7-0.8,1c0,0.3,0.1,0.7,0.2,0.9c0.3,0.4,0.9,0.8,1.6,1.1c0.9,0.3,1.9,0.6,2.9,0.8c1.2,0.3,2.5,0.6,3.7,1.1
		c1.8,0.7,3.4,1.8,4.3,3.3c0.9,1.4,1.2,3.1,0.6,5.2c-0.6,1.9-1.7,3.3-3.3,4.3s-3.4,1.4-5.4,1.5c-1.8,0-3.7-0.3-5.3-1.1
		c-1.6-0.7-3-1.9-4.1-3.3c-0.8-1.1-0.6-2.8,0.6-3.6c1.1-0.8,2.7-0.6,3.5,0.6c0.6,0.7,1.3,1.2,2.1,1.6c0.9,0.4,2.1,0.7,3.1,0.7
		c1.1-0.1,2.1-0.2,2.8-0.7c0.6-0.3,1-0.8,1.1-1.4c0.1-0.5,0.1-0.7-0.1-1c-0.2-0.5-0.9-0.9-1.7-1.2c-0.9-0.3-2-0.6-3-0.9
		c-1.1-0.2-2.4-0.6-3.4-1c-1.6-0.6-3-1.5-4-2.8c-1-1.3-1.5-2.9-1.1-4.7c0.2-1.9,1.4-3.4,2.9-4.4c1.4-1.1,3.3-1.7,5.1-1.9
		c1.6-0.2,3.3,0,4.9,0.7C139.7,20.9,141.1,21.8,142.3,23.1z M121.7,32.2V42c0,1.5-1.1,2.6-2.5,2.6s-2.5-1.1-2.6-2.4
		c-2.1,1.5-4.6,2.4-7.3,2.4c-3.4,0-6.6-1.4-8.8-3.7c-2.3-2.2-3.7-5.3-3.7-8.8s1.4-6.6,3.7-8.8c2.2-2.3,5.3-3.7,8.8-3.7
		c3.4,0,6.6,1.4,8.8,3.7S121.7,28.7,121.7,32.2z M114.4,27c-1.3-1.3-3.1-2.1-5.2-2.1s-3.9,0.8-5.2,2.1c-1.3,1.3-2.1,3.1-2.1,5.2
		s0.8,3.9,2.1,5.2c1.3,1.3,3.1,2.1,5.2,2.1s3.9-0.8,5.2-2.1c1.3-1.3,2.1-3.1,2.1-5.2C116.5,30.1,115.7,28.3,114.4,27z M54.2,32.2
		v-1.1V14.6v-1.1c0-1.4,1.1-2.5,2.5-2.5c1.5,0,2.6,1.1,2.6,2.5v1.1v7.5c2.1-1.5,4.6-2.4,7.3-2.4c3.4,0,6.6,1.4,8.8,3.7
		c2.3,2.2,3.7,5.3,3.7,8.8s-1.4,6.6-3.7,8.8c-2.2,2.3-5.3,3.7-8.8,3.7c-3.4,0-6.6-1.4-8.8-3.7S54.2,35.6,54.2,32.2L54.2,32.2
		L54.2,32.2z M61.5,37.4c1.3,1.3,3.1,2.1,5.2,2.1s3.9-0.8,5.2-2.1c1.3-1.3,2.1-3.1,2.1-5.2c0-2.1-0.8-3.9-2.1-5.2
		c-1.3-1.3-3.1-2.1-5.2-2.1s-3.9,0.8-5.2,2.1c-1.3,1.3-2.1,3.1-2.1,5.2l0,0C59.3,34.2,60.1,36,61.5,37.4z M186,19.7
		c3.4,0,6.6,1.4,8.8,3.7c2.2,2.2,3.6,5.3,3.6,8.8s-1.4,6.6-3.6,8.8c-2.2,2.3-5.3,3.7-8.8,3.7s-6.6-1.4-8.9-3.7
		c-2.2-2.2-3.6-5.3-3.6-8.8s1.4-6.6,3.6-8.8C179.5,21.1,182.6,19.7,186,19.7z M191.2,27c-1.3-1.3-3.2-2.1-5.2-2.1
		c-2.1,0-3.9,0.8-5.2,2.1c-1.4,1.3-2.2,3.1-2.2,5.2s0.8,3.9,2.2,5.2c1.3,1.3,3.1,2.1,5.2,2.1c2,0,3.9-0.8,5.2-2.1s2.1-3.1,2.1-5.2
		C193.3,30.1,192.5,28.3,191.2,27z M154.1,16.8c-1.3,0.4-2.8-0.3-3.2-1.6c-0.4-1.4,0.3-2.8,1.6-3.3c1-0.2,2-0.5,3-0.7
		c1.1-0.2,2.1-0.2,3.1-0.2s2.1,0.1,3,0.2c1.1,0.2,2.1,0.4,3,0.7c1.4,0.5,2.1,1.9,1.6,3.3c-0.4,1.3-1.8,2.1-3.2,1.6
		c-0.7-0.2-1.5-0.4-2.2-0.6c-0.7-0.1-1.5-0.2-2.3-0.2s-1.6,0.1-2.4,0.2C155.6,16.4,154.8,16.6,154.1,16.8z M163.9,27
		c-1.3-1.3-3.2-2.1-5.2-2.1c-2.1,0-3.9,0.8-5.3,2.1c-1.3,1.3-2.1,3.1-2.1,5.2s0.8,3.9,2.1,5.2c1.4,1.3,3.2,2.1,5.3,2.1
		c2,0,3.9-0.8,5.2-2.1s2.1-3.1,2.1-5.2l0,0C166,30.1,165.2,28.3,163.9,27z"/>
	<path class="st4" d="M250.1,19.7h-23.6h-9.3c-6.8,0-12.5,5.6-12.5,12.5l0,0c0,6.8,5.7,12.5,12.5,12.5h9.3h23.6h11.7
		c6.9,0,12.5-5.7,12.5-12.5l0,0c0-6.9-5.6-12.5-12.5-12.5H250.1z"/>
	<path class="st3" d="M224.5,26.9h3.2c1.5,0,2.6,0.2,3.3,0.7c0.7,0.4,1,1.1,1,2c0,0.7-0.2,1.1-0.4,1.6c-0.3,0.4-0.7,0.7-1.2,0.7V32
		c0.7,0.2,1.1,0.4,1.5,0.8s0.4,1,0.4,1.6c0,0.9-0.3,1.7-1,2.2c-0.7,0.6-1.6,0.8-2.9,0.8h-3.9L224.5,26.9L224.5,26.9z M226.7,31.1
		h1.2c0.7,0,1.1-0.1,1.3-0.3c0.3-0.2,0.4-0.5,0.4-0.9s-0.1-0.7-0.4-0.9c-0.3-0.2-0.7-0.2-1.4-0.2h-1.1V31.1z M226.7,32.8v2.7h1.4
		c0.7,0,1.1-0.1,1.4-0.3c0.2-0.2,0.4-0.6,0.4-1.1c0-0.9-0.6-1.3-1.9-1.3C228,32.8,226.7,32.8,226.7,32.8z M236.6,31.9h0.7
		c0.7,0,1.1-0.1,1.6-0.4c0.3-0.2,0.5-0.7,0.5-1.1c0-0.6-0.2-0.9-0.4-1.1c-0.3-0.2-0.7-0.4-1.4-0.4h-1L236.6,31.9L236.6,31.9z
		 M241.6,30.2c0,1.1-0.3,2-1.1,2.5c-0.7,0.7-1.7,0.9-3,0.9h-1v3.8h-2.2V26.9h3.4c1.2,0,2.2,0.2,2.9,0.8
		C241.3,28.3,241.6,29.1,241.6,30.2z M248,37.4l-2.5-8.2h-0.1c0.1,1.6,0.2,2.8,0.2,3.3v4.9h-2.1V26.9h3l2.5,8h0.1l2.6-8h3v10.5h-2.1
		v-5c0-0.2,0-0.5,0-0.8c0-0.2,0-1.1,0.1-2.4h-0.1l-2.7,8.2H248z"/>
</g>
</svg>
