<?xml version="1.0" encoding="UTF-8" standalone="no"?>
<svg
   xmlns:dc="http://purl.org/dc/elements/1.1/"
   xmlns:cc="http://creativecommons.org/ns#"
   xmlns:rdf="http://www.w3.org/1999/02/22-rdf-syntax-ns#"
   xmlns:svg="http://www.w3.org/2000/svg"
   xmlns="http://www.w3.org/2000/svg"
   viewBox="0 0 286.66666 96"
   height="96"
   width="286.66666"
   xml:space="preserve"
   id="svg2"
   version="1.1"><metadata
     id="metadata8"><rdf:RDF><cc:Work
         rdf:about=""><dc:format>image/svg+xml</dc:format><dc:type
           rdf:resource="http://purl.org/dc/dcmitype/StillImage" /></cc:Work></rdf:RDF></metadata><defs
     id="defs6" /><g
     transform="matrix(1.3333333,0,0,-1.3333333,0,96)"
     id="g10"><g
       transform="scale(0.1)"
       id="g12"><path
         id="path14"
         style="fill:#127bca;fill-opacity:1;fill-rule:evenodd;stroke:none"
         d="m 178.859,173.711 c 114.954,0 227.715,75.672 251.879,169.023 19.446,75.133 -24.433,138.797 -102.222,160.793 L 74.4023,478.273 16.9727,352.301 14.4961,342.734 C -9.66406,249.383 63.9141,173.711 178.859,173.711" /><path
         id="path16"
         style="fill:#7fd5e2;fill-opacity:1;fill-rule:evenodd;stroke:none"
         d="m 267.648,716.078 c 86.446,0 141.786,-56.91 123.618,-127.113 C 376.5,531.93 317.766,483.672 249.906,467.578 189.652,453.285 37.3633,431.102 14.4922,342.734 l 62.9258,243.11 c 18.1718,70.207 103.785,130.234 190.23,130.234" /><path
         id="path18"
         style="fill:#3db2d7;fill-opacity:1;fill-rule:evenodd;stroke:none"
         d="M 328.523,503.531 C 305.707,486.965 278.625,474.391 249.906,467.574 189.68,453.293 37.5195,431.121 14.5273,342.867 l -0.0351,-0.133 62.9258,243.11 c -16.7852,-64.86 181.906,-74.086 188.949,-74.086 v 0 c 22.434,0 43.289,-2.895 62.156,-8.227 z m -62.156,8.227 v 0 0" /><path
         id="path20"
         style="fill:#0b3b69;fill-opacity:1;fill-rule:evenodd;stroke:none"
         d="m 1719.57,503.758 c 37.06,0 70.6,-15.024 94.88,-39.305 24.28,-24.281 39.31,-57.828 39.31,-94.883 0,-37.05 -15.03,-70.601 -39.31,-94.882 -24.28,-24.282 -57.82,-39.305 -94.88,-39.305 -37.05,0 -70.6,15.023 -94.88,39.305 -24.28,24.281 -39.31,57.832 -39.31,94.882 0,37.055 15.03,70.602 39.31,94.883 24.28,24.281 57.83,39.305 94.88,39.305 z m 55.86,-78.324 c -14.29,14.293 -34.04,23.136 -55.86,23.136 -21.82,0 -41.57,-8.843 -55.86,-23.136 -14.3,-14.293 -23.14,-34.047 -23.14,-55.864 0,-21.816 8.84,-41.566 23.14,-55.863 14.29,-14.293 34.04,-23.137 55.86,-23.137 21.82,0 41.57,8.844 55.86,23.137 14.3,14.297 23.14,34.047 23.14,55.863 0,21.817 -8.84,41.571 -23.14,55.864" /><path
         id="path22"
         style="fill:#0b3b69;fill-opacity:1;fill-rule:evenodd;stroke:none"
         d="m 1798.57,369.57 c 0,15.239 12.35,27.594 27.59,27.594 15.24,0 27.6,-12.355 27.6,-27.594 V 262.98 c 0,-15.242 -12.36,-27.597 -27.6,-27.597 -15.24,0 -27.59,12.355 -27.59,27.597 v 106.59" /><path
         id="path24"
         style="fill:#0b3b69;fill-opacity:1;fill-rule:evenodd;stroke:none"
         d="m 1670.43,535.078 c -14.46,-4.644 -29.95,3.317 -34.59,17.785 -4.65,14.465 3.31,29.953 17.78,34.598 10.39,3.363 21.27,5.969 32.56,7.738 11.31,1.778 22.47,2.703 33.39,2.703 10.91,0 22.07,-0.925 33.38,-2.703 11.3,-1.769 22.18,-4.375 32.57,-7.738 14.46,-4.645 22.43,-20.133 17.78,-34.598 -4.64,-14.468 -20.13,-22.429 -34.59,-17.785 -7.94,2.563 -16.01,4.516 -24.16,5.797 -7.71,1.211 -16.04,1.836 -24.98,1.836 -8.94,0 -17.28,-0.625 -24.98,-1.836 -8.15,-1.281 -16.23,-3.234 -24.16,-5.797" /><path
         id="path26"
         style="fill:#0b3b69;fill-opacity:1;fill-rule:evenodd;stroke:none"
         d="m 2014.07,503.754 c 37.05,0 70.6,-15.02 94.88,-39.301 24.28,-24.281 39.3,-57.828 39.3,-94.879 0,-37.051 -15.02,-70.601 -39.3,-94.883 -24.28,-24.285 -57.83,-39.304 -94.88,-39.304 -37.05,0 -70.6,15.019 -94.88,39.304 -24.28,24.282 -39.3,57.832 -39.3,94.883 0,37.051 15.02,70.598 39.3,94.879 24.28,24.281 57.83,39.301 94.88,39.301 z m 55.86,-78.32 c -14.29,14.293 -34.04,23.132 -55.86,23.132 -21.82,0 -41.57,-8.839 -55.86,-23.132 -14.3,-14.293 -23.14,-34.043 -23.14,-55.86 0,-21.816 8.84,-41.57 23.14,-55.863 14.29,-14.293 34.04,-23.137 55.86,-23.137 21.82,0 41.57,8.844 55.86,23.137 14.29,14.293 23.14,34.047 23.14,55.863 0,21.817 -8.85,41.567 -23.14,55.86" /><path
         id="path28"
         style="fill:#0b3b69;fill-opacity:1;fill-rule:evenodd;stroke:none"
         d="m 727.781,235.387 c -37.054,0 -70.597,15.019 -94.879,39.304 -24.285,24.278 -39.304,57.825 -39.304,94.879 0,37.051 15.019,70.602 39.304,94.883 24.282,24.281 57.825,39.301 94.879,39.301 37.051,0 70.602,-15.02 94.883,-39.301 24.281,-24.281 39.301,-57.832 39.301,-94.883 0,-37.054 -15.02,-70.601 -39.301,-94.879 -24.281,-24.285 -57.832,-39.304 -94.883,-39.304 z m -55.859,78.324 c 14.293,-14.293 34.043,-23.137 55.859,-23.137 21.817,0 41.567,8.844 55.864,23.137 14.293,14.293 23.132,34.043 23.132,55.859 0,21.817 -8.839,41.567 -23.132,55.864 -14.297,14.293 -34.047,23.132 -55.864,23.132 -21.816,0 -41.566,-8.839 -55.859,-23.132 -14.293,-14.297 -23.137,-34.047 -23.137,-55.864 0,-21.816 8.844,-41.566 23.137,-55.859" /><path
         id="path30"
         style="fill:#0b3b69;fill-opacity:1;fill-rule:evenodd;stroke:none"
         d="m 648.785,369.57 c 0,-15.238 -12.351,-27.593 -27.59,-27.593 -15.242,0 -27.597,12.355 -27.597,27.593 v 11.364 178.007 11.364 c 0,15.238 12.355,27.593 27.597,27.593 15.239,0 27.59,-12.355 27.59,-27.593 V 558.941 380.934 369.57" /><path
         id="path32"
         style="fill:#0b3b69;fill-opacity:1;fill-rule:evenodd;stroke:none"
         d="m 1186.8,503.754 c 37.06,0 70.6,-15.02 94.88,-39.301 24.28,-24.281 39.3,-57.828 39.3,-94.879 0,-37.051 -15.02,-70.601 -39.3,-94.883 -24.28,-24.285 -57.82,-39.304 -94.88,-39.304 -37.05,0 -70.6,15.019 -94.88,39.304 -24.28,24.282 -39.3,57.832 -39.3,94.883 0,37.051 15.02,70.598 39.3,94.879 24.28,24.281 57.83,39.301 94.88,39.301 z m 55.86,-78.32 c -14.29,14.293 -34.04,23.132 -55.86,23.132 -21.81,0 -41.57,-8.839 -55.86,-23.132 -14.29,-14.293 -23.14,-34.043 -23.14,-55.86 0,-21.816 8.85,-41.57 23.14,-55.863 14.29,-14.293 34.05,-23.137 55.86,-23.137 21.82,0 41.57,8.844 55.86,23.137 14.3,14.293 23.14,34.047 23.14,55.863 0,21.817 -8.84,41.567 -23.14,55.86" /><path
         id="path34"
         style="fill:#0b3b69;fill-opacity:1;fill-rule:evenodd;stroke:none"
         d="m 1265.8,369.57 c 0,15.239 12.35,27.594 27.59,27.594 15.24,0 27.59,-12.355 27.59,-27.594 V 262.98 c 0,-15.238 -12.35,-27.593 -27.59,-27.593 -15.24,0 -27.59,12.355 -27.59,27.593 v 106.59" /><path
         id="path36"
         style="fill:#0b3b69;fill-opacity:1;fill-rule:evenodd;stroke:none"
         d="m 1543.04,467.754 c 10.35,-11.133 9.73,-28.555 -1.4,-38.91 -11.14,-10.36 -28.56,-9.731 -38.91,1.398 -7.39,7.961 -15.25,13.238 -23.23,16.324 -8.72,3.364 -17.98,4.278 -27.19,3.34 -10.32,-1.051 -20.83,-4.633 -28.63,-10.269 -4.7,-3.383 -8,-7.227 -8.6,-11.078 -0.58,-3.735 0.31,-6.832 2.15,-9.313 3.53,-4.738 10.15,-8.656 18.08,-11.574 9.86,-3.629 20.55,-6.285 31.22,-8.938 13.18,-3.277 26.36,-6.554 39.83,-11.777 19.17,-7.441 35.59,-18.941 45.5,-34.738 9.87,-15.723 13.14,-34.36 6.59,-55.785 -6.31,-20.645 -19.17,-35.704 -35.53,-45.926 -16.97,-10.61 -37.71,-15.653 -58.22,-16.086 -20.18,-0.422 -39.98,3.469 -57.5,11.367 -17.59,7.926 -33.04,19.887 -44.59,35.602 -8.99,12.261 -6.34,29.492 5.93,38.48 12.26,8.988 29.49,6.336 38.48,-5.93 5.69,-7.742 13.61,-13.777 22.81,-17.925 10.22,-4.602 21.86,-6.871 33.8,-6.621 11.08,0.234 21.9,2.714 30.19,7.894 5.64,3.527 10.02,8.5 12.03,15.094 1.39,4.555 1.02,8.015 -0.55,10.519 -3.17,5.047 -10.06,9.36 -18.78,12.746 -9.93,3.848 -21.53,6.735 -33.14,9.622 -12.42,3.085 -24.85,6.179 -37.04,10.664 -17.24,6.347 -32.83,16.472 -43.3,30.546 -10.3,13.848 -15.37,30.688 -12.29,50.489 3.09,19.812 14.81,35.754 30.8,47.293 15.68,11.312 35.95,18.422 55.38,20.402 17.3,1.762 35.1,-0.113 52.4,-6.793 15.56,-6.008 30.41,-15.777 43.71,-30.117" /><path
         id="path38"
         style="fill:#0b3b69;fill-opacity:1;fill-rule:evenodd;stroke:none"
         d="m 1024.3,503.754 c 15.24,0 27.6,-12.352 27.6,-27.594 0,-15.238 -12.36,-27.594 -27.6,-27.594 -24.527,0 -43.261,-7.031 -55.691,-18.664 -12.836,-12.011 -19.656,-29.699 -19.656,-50.066 V 262.98 c 0,-15.238 -12.355,-27.593 -27.59,-27.593 -15.238,0 -27.597,12.355 -27.597,27.593 v 116.856 c 0,35.516 12.949,67.348 37.332,90.164 22.476,21.031 54.004,33.754 93.202,33.754" /><path
         id="path40"
         style="fill:#918f8f;fill-opacity:1;fill-rule:nonzero;stroke:none"
         d="m 1357.28,36.4492 14.19,2.2813 c 0.79,-5.6797 3.01,-10.0274 6.66,-13.0782 3.64,-3.0156 8.76,-4.5351 15.28,-4.5351 6.61,0 11.5,1.332 14.71,4.0195 3.18,2.6641 4.78,5.8203 4.78,9.4336 0,3.2383 -1.44,5.793 -4.29,7.6445 -2.01,1.2735 -6.91,2.879 -14.68,4.8633 -10.5,2.6407 -17.76,4.9219 -21.83,6.8516 -4.06,1.957 -7.13,4.625 -9.22,8.0508 -2.09,3.3945 -3.16,7.1758 -3.16,11.3086 0,3.7812 0.88,7.2578 2.58,10.4687 1.75,3.207 4.08,5.8711 7.05,7.9922 2.23,1.6289 5.27,3.0195 9.1,4.1602 3.87,1.1406 7.97,1.7109 12.38,1.7109 6.63,0 12.45,-0.9492 17.46,-2.8789 5.02,-1.9063 8.72,-4.5156 11.11,-7.7774 2.37,-3.289 4.03,-7.6679 4.92,-13.1601 l -14.02,-1.957 c -0.63,4.4062 -2.48,7.8593 -5.53,10.3281 -3.04,2.4765 -7.34,3.6992 -12.91,3.6992 -6.56,0 -11.25,-1.0859 -14.06,-3.2617 -2.8,-2.1758 -4.21,-4.7305 -4.21,-7.6406 0,-1.8477 0.57,-3.5313 1.74,-5.0274 1.17,-1.5234 2.99,-2.8008 5.49,-3.8086 1.45,-0.5429 5.63,-1.7656 12.64,-3.6679 10.12,-2.6954 17.18,-4.9219 21.21,-6.6368 4.03,-1.7109 7.18,-4.2422 9.47,-7.5039 2.3,-3.289 3.45,-7.3633 3.45,-12.2617 0,-4.7578 -1.39,-9.2461 -4.19,-13.457 -2.8,-4.2149 -6.83,-7.4766 -12.08,-9.7891 -5.27,-2.3086 -11.22,-3.44921 -17.86,-3.44921 -10.98,0 -19.38,2.28121 -25.14,6.82421 -5.77,4.5664 -9.44,11.3086 -11.04,20.2539 z m 109.93,75.2028 v 16.313 h 14.36 v -16.313 z m 0,-100.4879 v 84.664 h 14.36 v -84.664 z m 53.2,25.2851 14.19,2.2813 c 0.79,-5.6797 3.02,-10.0274 6.66,-13.0782 3.65,-3.0156 8.75,-4.5351 15.28,-4.5351 6.6,0 11.5,1.332 14.71,4.0195 3.18,2.6641 4.78,5.8203 4.78,9.4336 0,3.2383 -1.44,5.793 -4.29,7.6445 -2.01,1.2735 -6.91,2.879 -14.68,4.8633 -10.5,2.6407 -17.76,4.9219 -21.83,6.8516 -4.06,1.957 -7.13,4.625 -9.22,8.0508 -2.1,3.3945 -3.16,7.1758 -3.16,11.3086 0,3.7812 0.87,7.2578 2.59,10.4687 1.74,3.207 4.07,5.8711 7.04,7.9922 2.23,1.6289 5.27,3.0195 9.11,4.1602 3.86,1.1406 7.96,1.7109 12.37,1.7109 6.63,0 12.45,-0.9492 17.45,-2.8789 5.03,-1.9063 8.73,-4.5156 11.12,-7.7774 2.36,-3.289 4.02,-7.6679 4.92,-13.1601 l -14.02,-1.957 c -0.63,4.4062 -2.48,7.8593 -5.52,10.3281 -3.05,2.4765 -7.35,3.6992 -12.92,3.6992 -6.55,0 -11.26,-1.0859 -14.06,-3.2617 -2.8,-2.1758 -4.21,-4.7305 -4.21,-7.6406 0,-1.8477 0.57,-3.5313 1.74,-5.0274 1.17,-1.5234 2.99,-2.8008 5.49,-3.8086 1.44,-0.5429 5.63,-1.7656 12.64,-3.6679 10.12,-2.6954 17.19,-4.9219 21.21,-6.6368 4.02,-1.7109 7.18,-4.2422 9.46,-7.5039 2.31,-3.289 3.45,-7.3633 3.45,-12.2617 0,-4.7578 -1.38,-9.2461 -4.18,-13.457 -2.8,-4.2149 -6.83,-7.4766 -12.07,-9.7891 -5.28,-2.3086 -11.23,-3.44921 -17.87,-3.44921 -10.98,0 -19.38,2.28121 -25.15,6.82421 -5.76,4.5664 -9.43,11.3086 -11.03,20.2539 z m 141.09,-12.4804 1.96,-12.668 c -4.03,-0.8477 -7.64,-1.2774 -10.8,-1.2774 -5.19,0 -9.21,0.8125 -12.1,2.4727 -2.85,1.6562 -4.86,3.8047 -6.03,6.4961 -1.17,2.6914 -1.74,8.3476 -1.74,16.9687 v 48.7774 h -10.6 v 11.0898 h 10.6 v 20.9339 l 14.35,8.617 V 95.8281 h 14.36 V 84.7383 h -14.36 V 35.1406 c 0,-4.1015 0.25,-6.7383 0.77,-7.9101 0.48,-1.168 1.3,-2.0938 2.45,-2.7969 1.13,-0.6797 2.77,-1.0352 4.89,-1.0352 1.57,0 3.66,0.1914 6.25,0.5704 z m 94.57,14.6015 14.85,-1.957 c -2.31,-8.6211 -6.63,-15.336 -12.94,-20.0938 -6.31,-4.7578 -14.35,-7.14841 -24.18,-7.14841 -12.34,0 -22.12,3.80471 -29.35,11.41801 -7.24,7.5859 -10.85,18.2695 -10.85,32 0,14.1953 3.64,25.2304 10.95,33.0586 7.32,7.8593 16.81,11.7734 28.47,11.7734 11.28,0 20.5,-3.832 27.65,-11.5234 7.15,-7.6954 10.74,-18.5157 10.74,-32.4649 0,-0.8437 -0.03,-2.125 -0.08,-3.8086 h -63.05 c 0.54,-9.2695 3.15,-16.3945 7.88,-21.3164 4.71,-4.918 10.61,-7.3906 17.64,-7.3906 5.26,0 9.74,1.3867 13.44,4.1562 3.72,2.7774 6.66,7.2032 8.83,13.2969 z m -46.97,23 h 47.14 c -0.63,7.1211 -2.45,12.4531 -5.41,16.0156 -4.54,5.5196 -10.47,8.2891 -17.73,8.2891 -6.58,0 -12.1,-2.1992 -16.58,-6.6055 -4.46,-4.4023 -6.94,-10.3007 -7.42,-17.6992 z m 102.61,-50.4062 v 84.664 h 12.89 V 83.8633 c 2.64,4.1367 6.17,7.4805 10.58,9.9805 4.41,2.5273 9.41,3.7773 15.03,3.7773 6.25,0 11.4,-1.3047 15.39,-3.8867 4,-2.6094 6.83,-6.2266 8.46,-10.9024 6.74,9.8672 15.47,14.7891 26.24,14.7891 8.42,0 14.92,-2.3125 19.43,-6.957 4.54,-4.6485 6.83,-11.8047 6.83,-21.4532 V 11.1641 h -14.36 v 53.289 c 0,5.711 -0.49,9.8399 -1.41,12.3711 -0.92,2.5274 -2.61,4.5391 -5.08,6.0899 -2.45,1.5468 -5.33,2.3086 -8.62,2.3086 -5.98,0 -10.93,-1.9844 -14.88,-5.9258 -3.94,-3.9688 -5.89,-10.3047 -5.89,-19.0039 V 11.1641 h -14.36 v 54.9453 c 0,6.3633 -1.17,11.1484 -3.51,14.3281 -2.33,3.1836 -6.17,4.7852 -11.47,4.7852 -4.03,0 -7.75,-1.0586 -11.18,-3.1797 -3.42,-2.1211 -5.89,-5.2188 -7.44,-9.3242 -1.53,-4.0782 -2.29,-9.9805 -2.29,-17.6719 V 11.1641 Z m 213.86,10.6054 c -5.33,-4.5429 -10.47,-7.7265 -15.39,-9.6015 -4.92,-1.875 -10.2,-2.79691 -15.85,-2.79691 -9.3,0 -16.45,2.25391 -21.45,6.79691 -5,4.5117 -7.5,10.3008 -7.5,17.3437 0,4.1328 0.94,7.9102 2.82,11.3399 1.9,3.4218 4.38,6.1406 7.43,8.2109 3.07,2.0664 6.49,3.6406 10.32,4.6992 2.83,0.7344 7.1,1.4414 12.78,2.1485 11.58,1.3632 20.15,3.0195 25.61,4.9218 0.06,1.9571 0.09,3.2071 0.09,3.7266 0,5.8164 -1.36,9.9258 -4.08,12.3164 -3.67,3.2305 -9.14,4.8398 -16.37,4.8398 -6.77,0 -11.77,-1.1992 -14.98,-3.5625 -3.24,-2.3632 -5.6,-6.5546 -7.15,-12.5859 l -14.03,1.9531 c 1.28,6.0078 3.37,10.8789 6.31,14.5782 2.93,3.6914 7.17,6.5234 12.72,8.5351 5.52,1.9805 11.96,2.9883 19.25,2.9883 7.23,0 13.13,-0.8438 17.67,-2.5547 4.52,-1.7109 7.86,-3.832 9.98,-6.4141 2.12,-2.582 3.62,-5.8476 4.48,-9.7929 0.47,-2.4414 0.71,-6.8516 0.71,-13.1875 V 46.6445 c 0,-13.2929 0.3,-21.6953 0.9,-25.2578 0.57,-3.5625 1.77,-6.9609 3.51,-10.2226 h -15.01 c -1.44,3.0195 -2.36,6.5507 -2.77,10.6054 z m -1.14,31.8047 c -5.23,-2.1172 -13.05,-3.914 -23.5,-5.3789 -5.92,-0.8437 -10.11,-1.793 -12.55,-2.8594 -2.45,-1.0586 -4.33,-2.6054 -5.66,-4.6171 -1.33,-2.043 -2.01,-4.2969 -2.01,-6.7969 0,-3.7813 1.43,-6.961 4.35,-9.4883 2.9,-2.5313 7.15,-3.8086 12.72,-3.8086 5.52,0 10.44,1.1953 14.76,3.6133 4.3,2.3984 7.48,5.6836 9.49,9.8437 1.55,3.2383 2.31,7.9922 2.31,14.2735 z m 53.52,-17.125 14.19,2.2813 c 0.79,-5.6797 3.02,-10.0274 6.66,-13.0782 3.64,-3.0156 8.75,-4.5351 15.28,-4.5351 6.6,0 11.5,1.332 14.71,4.0195 3.18,2.6641 4.78,5.8203 4.78,9.4336 0,3.2383 -1.44,5.793 -4.29,7.6445 -2.02,1.2735 -6.91,2.879 -14.69,4.8633 -10.49,2.6407 -17.75,4.9219 -21.83,6.8516 -4.05,1.957 -7.12,4.625 -9.22,8.0508 -2.09,3.3945 -3.15,7.1758 -3.15,11.3086 0,3.7812 0.87,7.2578 2.59,10.4687 1.73,3.207 4.07,5.8711 7.04,7.9922 2.23,1.6289 5.27,3.0195 9.11,4.1602 3.85,1.1406 7.96,1.7109 12.36,1.7109 6.64,0 12.46,-0.9492 17.46,-2.8789 5.03,-1.9063 8.73,-4.5156 11.12,-7.7774 2.36,-3.289 4.02,-7.6679 4.92,-13.1601 l -14.03,-1.957 c -0.62,4.4062 -2.47,7.8593 -5.51,10.3281 -3.06,2.4765 -7.35,3.6992 -12.92,3.6992 -6.55,0 -11.26,-1.0859 -14.06,-3.2617 -2.8,-2.1758 -4.21,-4.7305 -4.21,-7.6406 0,-1.8477 0.57,-3.5313 1.74,-5.0274 1.17,-1.5234 2.99,-2.8008 5.49,-3.8086 1.44,-0.5429 5.63,-1.7656 12.64,-3.6679 10.12,-2.6954 17.18,-4.9219 21.21,-6.6368 4.02,-1.7109 7.18,-4.2422 9.46,-7.5039 2.31,-3.289 3.45,-7.3633 3.45,-12.2617 0,-4.7578 -1.38,-9.2461 -4.18,-13.457 -2.8,-4.2149 -6.83,-7.4766 -12.07,-9.7891 -5.28,-2.3086 -11.23,-3.44921 -17.87,-3.44921 -10.98,0 -19.38,2.28121 -25.15,6.82421 -5.76,4.5664 -9.43,11.3086 -11.03,20.2539" /></g></g></svg>
